<?xml version="1.0" standalone="no"?>
<!DOCTYPE svg PUBLIC "-//W3C//DTD SVG 20010904//EN"
 "http://www.w3.org/TR/2001/REC-SVG-20010904/DTD/svg10.dtd">
<svg version="1.0" xmlns="http://www.w3.org/2000/svg"
 width="390.000000pt" height="390.000000pt" viewBox="0 0 390.000000 390.000000"
 preserveAspectRatio="xMidYMid meet">
<metadata>
Created by potrace 1.14, written by Peter Selinger 2001-2017
</metadata>
<g transform="translate(0.000000,390.000000) scale(0.100000,-0.100000)"
fill="#000000" stroke="none">
<path d="M2920 3880 c31 -24 61 -28 270 -35 91 -3 246 -14 345 -25 99 -12 222
-23 273 -27 l92 -6 0 57 0 56 -502 0 c-500 0 -503 -1 -478 -20z"/>
<path d="M3852 3678 c7 -20 48 -23 48 -4 0 11 -9 16 -26 16 -16 0 -24 -5 -22
-12z"/>
<path d="M1077 3673 c-14 -13 -6 -24 15 -21 27 4 36 28 11 28 -11 0 -23 -3
-26 -7z"/>
<path d="M3885 3640 c-3 -5 -1 -10 4 -10 6 0 11 5 11 10 0 6 -2 10 -4 10 -3 0
-8 -4 -11 -10z"/>
<path d="M3735 3631 c-20 -8 -20 -8 1 -15 28 -9 61 3 42 15 -15 10 -17 10 -43
0z"/>
<path d="M1127 3613 c-10 -9 -9 -63 1 -63 5 0 19 11 32 26 21 21 22 27 10 34
-18 11 -34 13 -43 3z"/>
<path d="M3487 3599 c-43 -10 -93 -49 -64 -49 10 0 21 -8 24 -17 10 -28 23
-33 93 -33 56 -1 74 -6 132 -38 61 -35 65 -39 47 -50 -10 -7 -27 -12 -37 -12
-22 0 -72 -22 -72 -32 0 -12 22 -21 29 -11 8 13 90 53 108 53 7 0 13 4 13 9 0
11 -113 73 -177 97 -33 13 -43 22 -43 40 0 12 5 26 10 29 16 10 11 25 -7 24
-10 -1 -35 -5 -56 -10z"/>
<path d="M3885 3560 c-3 -5 -1 -10 4 -10 6 0 11 5 11 10 0 6 -2 10 -4 10 -3 0
-8 -4 -11 -10z"/>
<path d="M3037 3528 c3 -13 10 -29 16 -35 14 -19 -17 -17 -55 3 -24 12 -32 13
-38 4 -5 -7 -17 -10 -29 -7 -32 8 -26 -5 30 -72 l52 -61 20 43 c12 23 27 46
34 50 7 4 13 17 13 27 0 13 9 22 25 26 31 8 27 14 -23 31 -49 17 -51 17 -45
-9z"/>
<path d="M3860 3379 c0 -11 4 -18 9 -15 4 3 6 -6 3 -19 -3 -18 0 -25 12 -25
12 0 15 9 13 40 -1 30 -6 40 -19 40 -12 0 -18 -8 -18 -21z"/>
<path d="M3872 3228 c-7 -7 -12 -21 -12 -32 -1 -20 -28 -67 -33 -56 -1 2 -12
-2 -24 -11 -13 -9 -20 -19 -15 -23 7 -8 8 -13 11 -41 0 -8 9 -15 20 -15 10 0
30 -18 46 -40 15 -22 29 -40 31 -40 2 0 4 61 4 135 0 74 -4 135 -8 135 -4 0
-13 -5 -20 -12z"/>
<path d="M3693 3187 l7 -47 -33 -2 c-57 -3 -62 -4 -77 -13 -8 -5 -19 -10 -25
-10 -5 0 -11 -26 -13 -58 -3 -51 -6 -59 -29 -70 -23 -10 -28 -8 -52 22 -27 33
-29 34 -127 38 -87 5 -102 8 -125 29 l-26 24 5 -29 c4 -29 2 -31 -36 -37 -38
-6 -40 -8 -31 -31 12 -33 12 -74 0 -54 -8 12 -12 13 -26 1 -13 -11 -18 -10
-29 6 -11 15 -18 16 -37 7 -26 -11 -89 -6 -89 8 0 5 7 9 15 9 8 0 15 7 15 16
0 10 -6 14 -15 10 -8 -3 -15 -1 -15 5 0 5 8 12 18 16 22 8 46 33 55 56 6 17 3
18 -41 12 -43 -6 -51 -3 -83 22 -52 42 -159 92 -199 95 -33 3 -36 0 -61 -51
-14 -29 -31 -56 -36 -60 -20 -13 -33 -51 -33 -100 0 -76 -20 -204 -34 -219 -7
-7 -34 -19 -60 -27 -45 -14 -47 -14 -55 8 -5 12 -12 58 -16 103 -11 132 -25
123 -23 -13 3 -117 2 -123 -19 -138 -29 -20 -29 -40 -1 -59 20 -14 21 -21 15
-103 -13 -178 -46 -343 -91 -453 -13 -30 -26 -63 -30 -74 -6 -17 -7 -16 -25 5
-16 20 -17 25 -5 32 15 8 20 28 7 26 -19 -3 -25 2 -15 14 5 6 13 32 16 57 4
25 3 40 -1 33 -10 -14 -6 108 7 234 13 115 13 193 1 193 -5 0 -12 -30 -15 -67
-10 -106 -27 -235 -36 -268 -5 -16 -11 -46 -14 -66 -5 -26 -13 -38 -27 -42
-13 -4 -19 -10 -14 -19 4 -7 -18 12 -47 43 -30 30 -68 82 -85 115 -17 32 -42
80 -56 105 -42 77 -57 148 -57 266 0 108 -11 159 -23 111 -4 -12 -7 -39 -7
-58 0 -38 -15 -31 -23 10 -2 14 -5 -1 -6 -32 -1 -40 7 -78 25 -125 14 -37 32
-93 41 -123 8 -30 21 -58 29 -63 7 -4 16 -23 20 -42 3 -19 33 -73 65 -121 32
-47 59 -89 59 -93 0 -21 -136 172 -175 248 -46 92 -97 242 -119 354 -20 103
-23 109 -30 74 -6 -34 -4 -77 10 -203 2 -22 10 -63 18 -90 7 -27 14 -68 15
-91 2 -43 15 -111 50 -253 11 -47 34 -150 52 -230 17 -80 37 -158 45 -174 8
-16 14 -35 14 -41 0 -7 7 -19 17 -26 14 -12 17 -12 21 0 3 8 17 25 31 39 l26
24 18 -23 c25 -31 32 -17 14 28 -14 36 -13 41 7 84 13 25 29 56 38 67 14 21
15 21 15 -11 0 -17 -3 -36 -7 -42 -9 -14 -12 -115 -3 -115 5 0 19 9 33 20 14
11 34 20 45 20 16 0 13 -6 -18 -33 -38 -32 -67 -77 -67 -103 0 -10 6 -11 26
-4 34 13 37 13 62 -10 13 -12 22 -33 22 -50 0 -22 5 -30 17 -30 13 0 14 -3 5
-12 -33 -33 4 -138 63 -184 45 -34 49 -35 155 -40 64 -3 90 -1 104 10 19 16
14 36 -10 36 -18 0 -18 9 0 29 29 32 76 134 76 165 0 59 10 76 42 76 16 0 39
-5 51 -12 45 -23 49 -34 42 -103 -5 -43 -4 -65 3 -65 6 0 13 8 16 18 8 23 64
78 72 69 3 -3 -5 -25 -20 -49 -14 -24 -37 -67 -51 -96 -16 -33 -34 -56 -50
-62 -14 -5 -25 -14 -25 -20 0 -5 -4 -10 -10 -10 -5 0 -7 7 -4 15 7 17 -11 21
-21 5 -4 -6 -11 -8 -16 -5 -5 4 -9 1 -9 -5 0 -6 7 -13 15 -16 12 -5 13 -10 4
-20 -6 -8 -15 -11 -20 -8 -5 3 -20 -7 -34 -23 -19 -22 -24 -24 -25 -10 0 9 -4
17 -10 17 -15 0 -12 -16 5 -30 18 -15 11 -25 -17 -25 -11 0 -26 -9 -32 -20 -6
-10 -17 -26 -24 -33 -18 -20 -11 -45 13 -52 32 -8 27 -37 -7 -44 -16 -3 -27
-10 -24 -15 3 -5 -8 -14 -24 -20 -17 -5 -33 -17 -36 -25 -7 -17 47 -101 71
-109 8 -4 15 -13 15 -21 0 -9 9 -20 20 -26 21 -11 20 -12 -6 -43 -15 -18 -45
-43 -68 -56 -71 -41 -210 -108 -246 -119 -292 -86 -427 -117 -468 -107 -15 3
-59 22 -99 41 -39 19 -89 38 -110 41 l-38 6 30 -27 c20 -19 26 -29 17 -33 -7
-2 -19 -20 -27 -40 -8 -19 -19 -32 -25 -28 -14 9 -58 -44 -66 -80 -8 -35 -19
-45 -53 -45 -16 0 -21 -4 -17 -15 4 -10 -1 -15 -14 -15 -11 0 -20 5 -20 12 0
9 -3 9 -12 0 -7 -7 -24 -12 -39 -12 -15 0 -42 -6 -60 -14 -31 -13 -38 -12 -77
5 -29 13 -42 26 -42 39 0 11 4 20 9 20 5 0 16 12 26 26 13 21 14 28 4 34 -23
15 -20 46 6 58 16 7 23 17 19 27 -3 8 -10 12 -15 9 -5 -3 -9 -2 -9 3 0 4 23
21 50 38 56 33 60 52 17 73 -15 7 -27 20 -27 28 0 8 -7 17 -15 20 -24 10 -18
21 15 28 34 6 41 35 12 43 -14 3 -18 11 -14 29 5 30 5 30 38 -1 15 -14 31 -25
37 -25 5 0 32 -18 59 -40 28 -22 58 -40 66 -40 19 0 17 2 -63 62 -74 56 -195
181 -195 201 0 8 10 22 22 30 19 13 21 18 9 26 -12 8 -9 11 15 16 49 11 51 13
58 41 6 22 2 32 -19 51 -14 13 -35 26 -46 28 -25 5 -89 52 -89 66 0 10 13 13
43 9 44 -4 65 53 25 66 -32 9 -127 100 -164 156 -18 26 -48 93 -68 150 -39
112 -47 105 -17 -13 18 -69 93 -211 137 -260 15 -17 14 -17 -10 -11 -15 4 -47
27 -71 51 -108 106 -35 -41 88 -178 26 -29 46 -56 43 -58 -3 -3 -21 4 -41 16
-39 23 -71 27 -77 11 -4 -12 -71 12 -94 33 -7 7 -31 25 -53 41 -23 17 -41 33
-41 38 0 4 -7 8 -15 8 -20 0 -19 -7 5 -37 11 -15 20 -41 20 -60 0 -19 9 -48
21 -64 16 -23 17 -29 5 -29 -8 0 -21 12 -28 27 -7 14 -19 29 -27 31 -9 3 -11
0 -6 -8 5 -8 3 -11 -6 -8 -8 3 -13 11 -12 17 2 6 -3 11 -11 11 -19 0 -87 114
-113 190 -17 51 -21 57 -16 25 11 -77 47 -174 102 -270 39 -68 66 -98 84 -92
16 5 115 -76 150 -124 31 -42 25 -52 -11 -19 -12 11 -27 20 -33 20 -7 0 -3 -9
9 -20 12 -11 24 -20 26 -20 10 0 46 -34 46 -43 0 -5 -7 -6 -16 -3 -8 3 -12 2
-9 -4 3 -6 13 -10 22 -10 9 0 32 -12 52 -27 37 -29 123 -112 101 -98 -18 11
-120 15 -120 4 0 -5 -11 -3 -25 3 -14 6 -25 15 -25 19 0 4 -12 10 -27 14 -31
7 -64 33 -150 117 -35 34 -63 55 -63 47 0 -8 19 -42 41 -77 41 -63 46 -91 11
-59 -10 10 -21 14 -25 11 -3 -3 -11 5 -18 18 -13 24 -28 38 -43 38 -5 0 -3 -7
4 -15 7 -9 11 -18 8 -21 -7 -7 -34 36 -42 69 -3 15 -11 27 -16 27 -6 0 -10 9
-10 19 0 11 -4 22 -9 26 -15 9 -58 90 -77 147 -17 48 -19 50 -22 23 -4 -51
-12 -75 -23 -75 -6 0 -8 4 -5 9 3 5 -2 33 -11 62 -13 41 -17 93 -17 212 -1
188 -10 188 -55 -1 -41 -171 -51 -234 -51 -308 0 -60 -19 -103 -21 -50 -2 39
-3 44 -13 53 -5 4 -6 -34 -2 -90 7 -100 32 -196 61 -241 15 -23 15 -27 -1 -63
-10 -21 -29 -49 -42 -63 -14 -14 -35 -42 -49 -63 -13 -21 -31 -41 -39 -44 -9
-3 -20 -15 -24 -27 -8 -18 -9 -17 -9 9 0 17 4 51 8 78 9 51 -3 63 -20 20 -28
-78 -92 -188 -125 -218 -6 -5 -25 -31 -43 -57 -29 -43 -31 -53 -31 -132 l0
-86 330 0 330 1 0 134 c0 128 13 226 33 252 27 37 49 -47 37 -141 -15 -124
-21 -246 -12 -246 5 0 12 33 16 73 7 74 22 173 34 216 16 56 120 73 170 27 28
-25 27 -40 -12 -191 -14 -55 -26 -106 -26 -112 0 -10 206 -13 998 -13 l997 0
3 70 c3 84 26 150 53 150 21 0 32 -43 28 -106 -4 -63 0 -114 10 -114 5 0 11
56 13 124 3 115 5 126 27 150 13 14 28 23 32 20 5 -3 9 -33 9 -67 0 -34 3 -99
7 -144 l6 -83 268 0 c271 0 307 5 264 36 -9 7 -15 18 -13 25 2 6 16 -5 31 -25
l28 -36 89 1 c68 0 90 4 90 14 0 7 -4 15 -8 17 -5 2 -26 32 -47 68 -21 36 -51
86 -67 111 -15 25 -28 50 -28 54 0 14 -52 85 -61 85 -20 0 -7 -46 38 -137 25
-52 51 -100 57 -107 32 -35 47 -86 25 -86 -5 0 -8 4 -5 9 4 5 -4 7 -16 3 -20
-5 -21 -4 -10 11 12 14 12 19 -1 32 -9 9 -17 11 -19 4 -9 -27 -81 42 -124 121
-10 19 -25 43 -32 52 -36 45 -103 181 -143 293 -17 48 -17 52 2 124 10 41 19
83 19 92 0 10 6 22 13 26 7 4 21 27 31 50 19 44 32 46 45 10 5 -13 8 0 8 41 1
43 8 76 26 114 24 50 53 175 44 184 -2 3 -10 -16 -16 -42 -18 -70 -23 -47 -11
47 5 46 10 152 10 236 0 95 4 153 10 153 6 0 11 -21 11 -47 1 -27 3 -55 4 -63
1 -8 3 -48 4 -88 0 -40 5 -71 10 -68 5 3 7 74 6 157 l-4 152 -67 3 c-58 3 -84
12 -180 59 -62 30 -117 55 -123 55 -19 0 -12 -15 24 -50 19 -19 35 -38 35 -43
0 -15 -79 4 -147 34 -78 35 -142 78 -201 136 -31 31 -48 41 -55 34 -8 -8 -4
-22 11 -50 12 -21 22 -43 22 -47 0 -17 -51 52 -76 101 -13 28 -35 68 -48 90
-13 22 -27 56 -30 76 -3 19 -19 54 -36 77 -17 23 -38 61 -47 84 -9 23 -19 36
-21 30 -2 -7 0 -18 6 -25 5 -7 12 -28 16 -48 4 -21 13 -50 21 -65 7 -16 16
-42 20 -59 5 -29 5 -29 -6 -5 -7 14 -25 52 -40 85 -35 75 -55 123 -64 155 -11
39 -37 90 -45 90 -7 0 24 -126 41 -165 13 -30 38 -115 33 -115 -7 0 -44 79
-44 95 0 8 -4 15 -9 15 -13 0 -68 116 -75 158 -4 24 -2 32 9 32 8 0 15 5 15
10 0 18 46 55 92 76 24 10 45 21 48 25 12 15 246 179 256 179 6 0 17 -15 24
-32 7 -18 16 -42 20 -53 4 -11 33 -73 65 -138 45 -93 69 -130 116 -176 54 -54
79 -94 79 -124 0 -7 -9 -1 -20 13 -11 14 -20 19 -20 12 0 -17 50 -90 84 -121
l27 -25 -15 40 c-8 21 -23 61 -35 87 -12 27 -21 59 -21 72 l0 23 55 -29 c30
-16 55 -25 55 -21 0 4 5 0 10 -8 8 -13 10 -13 10 2 0 9 -8 19 -17 22 -10 4
-31 25 -47 49 -17 23 -35 45 -42 49 -11 8 -8 48 4 48 3 0 14 -7 24 -17 24 -22
34 -10 19 23 -6 15 -10 28 -9 29 2 2 25 5 52 7 43 3 51 0 69 -24 17 -23 51
-185 41 -196 -6 -8 -53 34 -59 53 -7 20 -7 20 -12 0 -3 -10 0 -21 6 -23 14 -5
14 -29 -1 -34 -17 -6 20 -58 42 -58 10 0 25 -11 34 -25 36 -55 60 -215 34
-231 -6 -4 -9 -3 -5 2 3 5 -2 34 -10 64 -8 30 -17 67 -20 83 -10 53 -23 38
-23 -27 0 -38 -5 -68 -11 -72 -8 -4 -4 -13 12 -25 64 -50 -74 3 -146 55 -53
38 -85 57 -85 49 0 -12 73 -100 138 -166 54 -56 175 -145 216 -160 16 -7 18
-4 11 30 -4 21 -11 65 -16 98 -4 33 -17 101 -28 150 -11 50 -21 106 -21 125 0
19 -7 53 -14 75 -8 22 -17 71 -21 109 l-8 69 27 -5 c36 -7 33 0 -16 43 l-43
37 22 21 22 21 48 -52 c63 -67 85 -88 95 -88 4 0 12 -10 19 -21 12 -23 9 -24
-46 -4 -15 5 -12 0 9 -18 35 -30 39 -49 66 -337 15 -165 20 -288 19 -531 0
-174 -3 -320 -7 -324 -4 -4 -12 17 -19 47 l-12 53 5 -70 c14 -191 42 -380 80
-525 35 -136 42 -156 85 -247 22 -45 39 -89 39 -97 0 -8 4 -18 10 -21 6 -4 10
203 10 580 l0 585 -29 6 c-28 6 -28 7 -14 35 8 16 21 29 29 29 10 0 14 13 14
50 0 50 -14 92 -70 215 -45 98 -70 163 -70 182 0 9 -7 24 -15 33 -9 10 -18 35
-21 56 l-6 39 16 -29 c9 -15 16 -34 16 -41 0 -7 4 -15 8 -17 4 -1 37 -61 72
-132 l65 -128 3 543 c1 298 1 544 -1 545 -2 2 -48 5 -103 8 -117 4 -144 15
-172 67 l-21 39 23 -6 c19 -5 27 1 44 35 12 23 19 41 15 41 -4 0 1 6 12 13 14
11 15 16 5 22 -7 4 -16 2 -21 -6 -4 -8 -14 -14 -21 -14 -7 0 -14 -6 -14 -12
-3 -30 -4 -33 -14 -33 -5 0 -10 7 -10 16 0 11 -6 15 -20 11 -18 -5 -20 0 -20
54 0 46 3 59 15 59 11 0 15 11 15 40 0 36 2 40 25 40 14 0 43 -9 65 -20 21
-11 41 -16 45 -11 3 5 1 12 -5 16 -6 4 -8 10 -5 14 7 12 -23 109 -37 117 -8 5
-9 -6 -5 -39z m-699 -304 c-10 -40 -14 -41 -14 -5 0 18 5 32 10 32 6 0 8 -11
4 -27z m580 -29 c-6 -51 -8 -52 -58 -51 -24 1 -42 -1 -39 -5 2 -5 0 -8 -6 -8
-17 0 -23 19 -12 37 6 10 11 12 11 6 0 -7 5 -13 11 -13 6 0 9 6 6 14 -3 9 4
21 19 30 15 11 24 12 24 5 0 -7 8 -6 23 4 12 9 23 16 24 16 1 1 -1 -15 -3 -35z
m74 -196 c32 -129 61 -378 44 -378 -13 0 -42 28 -42 41 0 6 -9 7 -20 4 -11 -4
-20 -2 -20 4 0 6 -6 11 -14 11 -8 0 -17 8 -20 18 -3 10 -21 33 -39 52 -55 57
-89 115 -85 147 3 31 14 33 96 18 l42 -8 -6 58 c-5 44 -4 59 7 66 30 19 47 9
57 -33z m-84 -49 c-2 -4 -16 -4 -30 -1 -23 4 -25 7 -12 16 8 6 13 18 10 26 -3
8 4 4 16 -10 11 -14 18 -28 16 -31z m-181 -29 c10 -22 31 -53 47 -70 15 -16
25 -30 22 -30 -24 1 -116 106 -108 125 9 24 20 17 39 -25z m-930 -274 c65
-116 64 -119 -25 -110 -40 3 -75 8 -77 10 -6 5 40 184 48 184 3 0 27 -38 54
-84z m-606 32 c-3 -8 -6 -5 -6 6 -1 11 2 17 5 13 3 -3 4 -12 1 -19z m37 -41
c4 -12 18 -71 31 -132 14 -60 27 -118 29 -127 7 -25 -11 -23 -19 2 -4 11 -10
18 -15 15 -4 -3 -10 8 -13 23 -3 15 -10 45 -16 67 -6 22 -11 63 -11 90 0 36
-3 46 -10 35 -8 -13 -10 -13 -10 2 0 9 -2 23 -5 30 -3 8 2 14 14 15 12 1 22
-7 25 -20z m138 -174 c38 -37 68 -75 68 -84 0 -10 5 -19 11 -21 7 -2 8 -11 1
-28 -48 -121 -56 -131 -67 -78 -4 18 -16 48 -26 68 -20 40 -70 210 -61 210 4
0 37 -30 74 -67z m538 2 c10 -9 31 -35 47 -58 15 -23 54 -78 86 -122 57 -78
58 -80 34 -83 -14 -2 -41 4 -62 12 -30 13 -35 19 -30 36 8 24 -17 27 -55 5
-14 -8 -52 -14 -85 -15 -71 0 -199 -23 -251 -45 -48 -20 -57 -19 -45 3 6 11
30 27 55 36 54 21 64 41 34 73 -20 22 -21 26 -9 61 37 105 53 131 79 134 46 5
183 -20 202 -37z m885 25 c3 -5 1 -10 -4 -10 -6 0 -11 5 -11 10 0 6 2 10 4 10
3 0 8 -4 11 -10z m-1242 -237 c-30 -52 -44 -53 -26 -2 19 57 23 63 36 50 8 -8
5 -21 -10 -48z m72 17 c-3 -5 -10 -10 -16 -10 -5 0 -9 5 -9 10 0 6 7 10 16 10
8 0 12 -4 9 -10z m1289 -191 c18 -44 9 -72 -13 -45 -14 16 -21 86 -10 86 4 0
14 -19 23 -41z m-416 -126 c43 -14 80 -29 84 -32 4 -3 8 -23 10 -43 2 -42 17
-37 22 8 3 25 7 29 32 26 54 -6 49 11 84 -287 22 -183 24 -276 6 -390 l-12
-80 -8 80 c-9 108 -37 277 -47 295 -5 10 -9 -5 -9 -40 0 -61 -43 -233 -60
-238 -5 -2 -10 -12 -10 -23 0 -11 -6 -22 -14 -25 -8 -3 -17 -16 -20 -30 -4
-13 -11 -24 -16 -24 -6 0 -10 -10 -10 -23 0 -32 -10 -40 -25 -20 -13 18 -9 21
-74 -63 -40 -52 -65 -62 -89 -37 -12 11 -17 11 -30 1 -14 -12 -14 -10 -1 12 8
14 20 33 28 43 26 31 -7 19 -75 -29 -70 -48 -119 -73 -69 -34 47 37 48 38 19
32 -20 -4 -25 -1 -22 9 3 8 11 13 17 12 6 -2 11 3 11 10 0 8 12 25 28 40 66
64 97 131 34 76 -15 -13 -7 -1 18 26 89 97 122 149 187 290 21 46 21 48 3 25
-46 -56 -105 -110 -120 -110 -9 0 -25 -9 -35 -20 -10 -11 -23 -20 -29 -20 -6
0 -22 -9 -36 -20 -14 -11 -36 -20 -50 -20 -14 0 -39 -9 -57 -19 -28 -17 -33
-18 -44 -5 -8 10 -15 12 -23 4 -13 -13 -26 -13 -26 0 0 6 6 10 13 11 6 0 28
20 47 44 19 25 62 74 94 110 66 73 115 136 116 147 0 4 -19 -6 -42 -22 -24
-17 -58 -32 -75 -34 -18 -2 -40 -9 -48 -16 -19 -16 -32 -6 -17 13 6 7 16 25
22 41 l11 29 -26 -17 c-15 -10 -37 -16 -50 -14 -22 3 -20 8 39 86 34 46 71
100 81 120 34 65 76 123 86 117 5 -4 9 -17 9 -31 0 -13 5 -24 10 -24 6 0 10 5
10 10 0 19 45 10 83 -15 20 -14 37 -22 37 -17 0 4 -16 34 -35 66 -19 32 -35
60 -35 62 0 9 26 3 98 -23z m252 -85 c0 -21 0 -21 15 -2 14 18 14 18 15 -8 0
-16 -4 -28 -10 -28 -5 0 -7 -7 -4 -15 4 -8 3 -27 -1 -42 -9 -38 -21 -15 -30
60 -4 38 -3 57 4 57 6 0 11 -10 11 -22z m-940 -6 c0 -4 -13 -16 -30 -25 l-30
-18 0 25 c0 22 4 26 30 26 17 0 30 -4 30 -8z m1077 -119 c8 -148 -21 -379 -41
-323 -13 35 -34 352 -26 387 9 39 38 69 52 55 5 -5 11 -58 15 -119z m-1111 19
c-24 -5 -51 19 -34 29 7 5 20 1 31 -9 17 -15 17 -17 3 -20z m1040 -402 c5 -70
4 -88 -9 -98 -8 -7 -18 -9 -20 -5 -9 15 -10 237 -1 268 8 28 9 27 16 -25 4
-30 10 -93 14 -140z m-3033 73 c3 -5 11 -49 17 -98 6 -48 15 -96 21 -106 20
-37 26 -104 12 -118 -8 -7 -16 -26 -20 -42 -19 -95 -77 12 -90 166 -5 59 -3
74 11 88 14 13 16 26 10 63 -4 29 -1 68 7 103 l14 56 6 -51 c4 -29 9 -56 12
-61z m357 -29 c0 -8 -4 -14 -10 -14 -5 0 -10 4 -10 9 0 5 -3 18 -7 28 -6 16
-5 16 10 4 9 -7 17 -20 17 -27z m2540 -146 c0 -45 -3 -59 -10 -48 -15 24 -10
110 6 110 2 0 4 -28 4 -62z m-2962 -118 c6 -19 13 -51 17 -70 6 -35 6 -35 -8
-9 -7 14 -17 43 -20 65 -4 21 -9 50 -12 64 -5 21 -4 22 3 5 5 -11 14 -36 20
-55z m2245 -20 c-3 -11 -9 -23 -14 -26 -15 -9 -10 -24 9 -25 13 0 14 -2 2 -6
-8 -3 -18 -10 -21 -16 -4 -5 -39 -11 -78 -13 l-72 -5 38 33 c21 18 42 39 46
46 10 16 44 31 74 31 16 1 20 -3 16 -19z m-2033 -25 c0 -5 -5 -3 -10 5 -5 8
-10 20 -10 25 0 6 5 3 10 -5 5 -8 10 -19 10 -25z m38 -61 c-4 -3 -12 5 -18 18
-12 22 -12 22 6 6 10 -10 15 -20 12 -24z m1794 -31 c10 -9 18 -22 18 -30 0 -7
10 -18 23 -22 22 -9 22 -9 -5 -20 -15 -5 -50 -13 -78 -17 -27 -4 -50 -12 -50
-18 0 -26 13 -55 22 -50 5 3 30 1 54 -6 35 -10 43 -16 39 -30 -6 -19 27 -37
78 -42 27 -3 26 -4 -22 -35 -82 -54 -122 -41 -125 40 -1 36 -4 43 -19 39 -24
-6 -76 17 -88 41 -6 10 -7 17 -2 14 5 -3 7 7 5 23 -8 54 5 78 46 90 20 6 46
17 56 25 25 19 25 19 48 -2z m-1366 -16 c4 -4 0 -7 -9 -7 -9 0 -18 4 -21 9 -7
10 20 9 30 -2z m-526 -48 c0 -17 -4 -28 -10 -24 -5 3 -10 17 -10 31 0 13 5 24
10 24 6 0 10 -14 10 -31z m1963 24 c-7 -2 -21 -2 -30 0 -10 3 -4 5 12 5 17 0
24 -2 18 -5z m-1784 -36 l25 -32 -32 29 c-33 31 -37 36 -24 35 4 0 18 -14 31
-32z m1996 23 c3 -5 -1 -10 -10 -10 -9 0 -13 5 -10 10 3 6 8 10 10 10 2 0 7
-4 10 -10z m-2128 -52 c-3 -7 -5 -2 -5 12 0 14 2 19 5 13 2 -7 2 -19 0 -25z
m2043 22 c0 -5 -7 -10 -16 -10 -8 0 -12 5 -9 10 3 6 10 10 16 10 5 0 9 -4 9
-10z m-363 -32 c-3 -8 -6 -5 -6 6 -1 11 2 17 5 13 3 -3 4 -12 1 -19z m753 -72
c0 -3 -4 -8 -10 -11 -5 -3 -10 -1 -10 4 0 6 5 11 10 11 6 0 10 -2 10 -4z
m-2550 -16 c0 -5 -4 -10 -10 -10 -5 0 -10 5 -10 10 0 6 5 10 10 10 6 0 10 -4
10 -10z m2386 -7 c-3 -4 -17 -8 -29 -10 -17 -2 -19 -1 -7 7 17 11 47 14 36 3z
m-2420 -50 c-11 -11 -19 6 -11 24 8 17 8 17 12 0 3 -10 2 -21 -1 -24z m404
-23 c0 -5 -4 -10 -10 -10 -5 0 -10 5 -10 10 0 6 5 10 10 10 6 0 10 -4 10 -10z
m-446 -35 c-4 -8 -10 -15 -15 -15 -4 0 -6 7 -3 15 4 8 10 15 15 15 4 0 6 -7 3
-15z"/>
<path d="M3000 1309 c0 -5 5 -7 10 -4 6 3 10 8 10 11 0 2 -4 4 -10 4 -5 0 -10
-5 -10 -11z"/>
<path d="M3750 3126 c0 -9 5 -16 10 -16 6 0 10 4 10 9 0 6 -4 13 -10 16 -5 3
-10 -1 -10 -9z"/>
<path d="M723 3070 c-3 -11 -9 -20 -14 -20 -5 0 -9 -7 -9 -15 0 -8 3 -15 6
-15 10 0 43 44 44 58 0 20 -21 14 -27 -8z"/>
<path d="M1431 2919 c-12 -45 -26 -118 -31 -163 -9 -85 -16 -110 -74 -270 -39
-110 -45 -119 -65 -106 -12 7 -13 18 -3 62 6 29 16 82 21 118 6 36 15 87 21
114 5 27 9 51 7 53 -4 3 -20 -28 -33 -62 -4 -11 -17 -47 -29 -80 -40 -108
-118 -290 -128 -296 -5 -4 -7 -14 -4 -22 3 -9 -5 -39 -19 -67 -14 -29 -22 -55
-18 -59 4 -3 9 0 12 8 3 8 20 30 38 50 l33 36 1 -35 0 -35 25 37 c14 21 24 41
23 45 -2 4 2 8 7 8 6 0 9 -7 8 -17 -1 -9 4 -21 11 -27 10 -9 17 -6 30 14 18
27 37 30 119 19 l45 -6 48 -117 c26 -64 52 -122 57 -128 6 -9 6 -18 -2 -26 -8
-10 -1 -22 29 -52 22 -22 40 -46 40 -55 0 -11 2 -12 8 -2 6 8 13 1 25 -23 21
-43 41 -47 32 -6 -9 43 10 46 40 7 28 -37 95 -92 95 -79 0 5 -25 40 -55 78
-70 89 -153 252 -193 381 -18 56 -32 108 -32 117 0 9 -4 18 -9 21 -5 3 -8 -6
-6 -22 10 -110 14 -185 9 -172 -4 8 -10 17 -14 20 -15 10 -59 219 -71 334 -13
128 -7 264 16 398 8 45 13 83 11 85 -1 2 -13 -34 -25 -78z m-33 -536 c5 -10
12 -37 16 -60 l6 -43 -55 0 c-30 0 -55 2 -55 5 0 14 30 75 46 94 22 26 31 26
42 4z"/>
<path d="M580 2931 c13 -25 33 -28 28 -4 -2 10 -11 19 -21 21 -16 3 -17 1 -7
-17z"/>
<path d="M649 2489 c-14 -20 -18 -34 -11 -41 10 -10 52 39 52 61 0 20 -18 11
-41 -20z"/>
<path d="M1040 2288 c-35 -37 -60 -75 -54 -81 8 -8 -6 -65 -19 -80 -7 -6 -25
-32 -41 -56 -30 -47 -75 -94 -121 -126 -16 -11 -49 -37 -74 -57 -25 -21 -51
-38 -57 -38 -6 0 -18 -7 -25 -17 -13 -15 -10 -15 36 -9 28 4 58 9 68 12 40 12
3 -83 -55 -139 -10 -10 -18 -22 -18 -27 0 -13 17 -13 25 1 4 5 18 14 31 19 13
5 24 17 24 25 0 9 5 13 10 10 6 -4 24 5 41 19 39 33 46 33 54 -4 9 -41 25 -38
25 5 0 19 3 35 8 35 4 0 19 -21 34 -48 15 -26 36 -58 47 -72 l20 -25 -5 55
c-6 62 5 84 47 94 24 5 27 3 33 -32 3 -20 6 -50 6 -66 0 -21 4 -27 15 -23 22
9 30 -12 10 -27 -16 -12 -17 -18 -5 -67 21 -88 38 -104 122 -118 101 -16 184
1 175 37 -2 9 7 38 20 64 12 26 28 79 35 119 l12 71 41 -7 c22 -3 50 -8 63
-12 54 -13 5 84 -70 140 -28 20 -48 37 -45 37 10 0 73 -31 95 -46 12 -9 22
-12 22 -7 0 11 -34 43 -71 65 -33 21 -167 62 -251 78 -44 8 -76 20 -93 35 -24
23 -37 19 -41 -10 0 -5 -2 -16 -2 -22 -1 -8 -16 -13 -36 -13 -19 0 -36 -5 -38
-11 -5 -16 -38 1 -38 20 0 9 5 22 12 29 6 6 8 15 3 19 -4 5 -10 2 -12 -4 -3
-7 -11 -13 -18 -13 -7 0 -15 -6 -18 -12 -2 -7 -8 -10 -12 -6 -13 12 4 58 21
58 10 0 14 6 10 15 -6 17 13 65 26 65 4 0 8 7 8 15 0 15 15 47 36 75 17 22 25
68 15 75 -6 3 -19 -5 -31 -17z m263 -672 c9 0 17 -6 17 -12 0 -6 3 -25 6 -42
5 -26 2 -31 -24 -44 -26 -14 -34 -13 -77 3 -59 22 -70 32 -61 56 7 17 8 17 21
-1 14 -19 15 -18 41 7 14 15 23 31 19 38 -5 8 -1 9 16 3 13 -4 32 -8 42 -8z"/>
<path d="M1220 2179 c0 -5 5 -7 10 -4 6 3 10 8 10 11 0 2 -4 4 -10 4 -5 0 -10
-5 -10 -11z"/>
<path d="M1051 2116 c-7 -8 -8 -17 -3 -20 6 -3 13 1 16 10 9 23 2 28 -13 10z"/>
<path d="M3406 1932 c-3 -6 -1 -14 5 -17 15 -10 25 3 12 16 -7 7 -13 7 -17 1z"/>
<path d="M370 1840 c0 -5 6 -10 14 -10 8 0 18 5 21 10 3 6 -3 10 -14 10 -12 0
-21 -4 -21 -10z"/>
<path d="M457 1804 c-11 -11 3 -24 24 -24 12 0 19 5 17 13 -5 14 -31 21 -41
11z"/>
<path d="M401 1594 c0 -11 3 -14 6 -6 3 7 2 16 -1 19 -3 4 -6 -2 -5 -13z"/>
<path d="M168 1180 c-15 -26 -15 -30 -2 -30 17 0 27 21 22 44 -2 11 -8 7 -20
-14z"/>
<path d="M270 1196 c0 -7 7 -31 16 -52 21 -48 31 -27 14 27 -13 38 -30 53 -30
25z"/>
<path d="M740 1184 c0 -8 5 -12 10 -9 6 3 10 10 10 16 0 5 -4 9 -10 9 -5 0
-10 -7 -10 -16z"/>
<path d="M140 1135 c0 -4 7 -20 16 -37 16 -30 16 -33 -5 -49 -11 -9 -21 -22
-21 -29 0 -6 -5 -8 -10 -5 -6 4 -17 1 -25 -5 -13 -10 -32 -15 -87 -19 -5 -1
-8 -135 -8 -298 0 -163 4 -293 8 -287 14 15 90 240 117 345 18 72 65 347 65
384 0 3 -11 5 -25 5 -14 0 -25 -2 -25 -5z"/>
<path d="M1761 994 c-25 -18 -51 -71 -51 -104 0 -34 44 -70 85 -70 38 0 85 35
85 64 0 41 -57 126 -85 126 -6 0 -21 -7 -34 -16z"/>
<path d="M987 695 c2 -7 13 -11 24 -8 25 7 24 10 -5 15 -16 3 -23 1 -19 -7z"/>
</g>
</svg>
